<svg xmlns="http://www.w3.org/2000/svg" width="187" height="60" viewBox="0 0 187 60">
    <g fill="none" fill-rule="nonzero">
        <path fill="#FBD800" d="M19.216 32.26a34.286 34.286 0 0 1-8.151-.865 17.969 17.969 0 0 1-5.79-2.408 10.535 10.535 0 0 1-3.366-3.584 9.242 9.242 0 0 1-1.145-4.497 12.023 12.023 0 0 1 1.706-6.085 16.964 16.964 0 0 1 5.073-5.307 26.618 26.618 0 0 1 8.065-3.67 38.89 38.89 0 0 1 10.76-1.41c4.624 0 8.141.52 10.551 1.558 2.416 1.005 3.624 2.525 3.624 4.543 0 2.018-1.052 3.592-3.117 4.98a23.065 23.065 0 0 1-8.571 3.116c-2.852.585-5.268.998-7.278 1.255-2.01.257-4.45.475-7.348.685.073.891.23 1.773.467 2.634a7.161 7.161 0 0 0 1.161 2.494c.707.849 1.622 1.499 2.657 1.885 1.391.511 2.867.75 4.348.702 2.65.067 5.29-.345 7.793-1.216a19.371 19.371 0 0 0 6.109-3.85l2.836 1.622a25.387 25.387 0 0 1-8.93 5.454 32.4 32.4 0 0 1-11.454 1.964m8.735-21.04a4.714 4.714 0 0 0-1.208-3.467 4.512 4.512 0 0 0-3.335-1.208c-1.995 0-3.896 1.115-5.65 3.336a17.213 17.213 0 0 0-3.397 8.438 92.691 92.691 0 0 0 4.543-.483 23.478 23.478 0 0 0 3.569-.685 9.35 9.35 0 0 0 4.192-2.26 5.182 5.182 0 0 0 1.286-3.67"/>
        <path fill="#FFF" d="M64.948 27.584a1.558 1.558 0 0 1-.584 1.333c-.36.283-.805.437-1.263.436a1.901 1.901 0 0 1-1.2-.436 1.558 1.558 0 0 1-.569-1.333v-9.078a2.494 2.494 0 0 0-.779-1.862 2.603 2.603 0 0 0-1.878-.78h-.343a2.587 2.587 0 0 0-1.877.78 2.501 2.501 0 0 0-.78 1.862v9a1.652 1.652 0 0 1-.584 1.395 1.901 1.901 0 0 1-2.462 0 1.683 1.683 0 0 1-.561-1.395v-9a2.501 2.501 0 0 0-.78-1.862 2.587 2.587 0 0 0-1.878-.78h-.335a2.61 2.61 0 0 0-1.885.78 2.525 2.525 0 0 0-.78 1.862v9.078c.041.511-.171 1.01-.568 1.333a1.94 1.94 0 0 1-1.24.436 1.98 1.98 0 0 1-1.223-.436 1.558 1.558 0 0 1-.584-1.333v-13.48a1.629 1.629 0 0 1 .569-1.356c.348-.29.786-.45 1.239-.452.36-.013.718.05 1.052.187.337.169.61.442.779.78.323-.334.725-.58 1.169-.718a4.597 4.597 0 0 1 1.503-.264h.336a6.055 6.055 0 0 1 2.54.49c.723.332 1.38.791 1.94 1.356a6.35 6.35 0 0 1 1.94-1.348 6.234 6.234 0 0 1 2.463-.49h.343c2.124 0 3.703.545 4.737 1.636a6.234 6.234 0 0 1 1.559 4.457l-.016 9.202zM76.816 18.499a2.51 2.51 0 0 0-.78-1.855 2.54 2.54 0 0 0-1.862-.78h-.304a2.634 2.634 0 0 0-2.634 2.627v4.675c.01.687.29 1.342.78 1.824.482.511 1.159.794 1.862.779h.304a2.54 2.54 0 0 0 1.862-.78c.508-.481.79-1.154.78-1.854l-.008-4.636zm3.607 4.675a6.101 6.101 0 0 1-.483 2.431 6.234 6.234 0 0 1-1.34 1.948 5.82 5.82 0 0 1-1.995 1.317 6.234 6.234 0 0 1-2.423.475h-.265a7.535 7.535 0 0 1-1.262-.155 2.556 2.556 0 0 1-1.41-.78 1.395 1.395 0 0 1-.6.702c-.375.187-.791.273-1.209.249a1.971 1.971 0 0 1-1.239-.452 1.558 1.558 0 0 1-.56-1.317V6.242a1.644 1.644 0 0 1 .56-1.356 1.932 1.932 0 0 1 2.486 0c.39.339.597.84.561 1.356v7.013c.407-.361.889-.627 1.41-.78.41-.126.834-.202 1.263-.226h.265a6.094 6.094 0 0 1 2.423.491c.743.308 1.42.755 1.995 1.317a5.969 5.969 0 0 1 1.34 1.98c.323.766.487 1.59.483 2.423v4.714zM92.213 18.382a2.338 2.338 0 0 0-.78-1.792c-.499-.462-1.158-.71-1.838-.694h-.304a2.618 2.618 0 0 0-1.862.717 2.338 2.338 0 0 0-.78 1.792v4.886a2.338 2.338 0 0 0 .78 1.8 2.65 2.65 0 0 0 1.862.709h.304a2.65 2.65 0 0 0 1.862-.71 2.338 2.338 0 0 0 .78-1.8l-.024-4.908zm3.616 4.917a5.829 5.829 0 0 1-.484 2.407 6.234 6.234 0 0 1-1.34 1.917c-.569.556-1.245.991-1.987 1.278-.775.3-1.6.453-2.431.452h-.304a6.592 6.592 0 0 1-2.439-.452 6.008 6.008 0 0 1-1.98-1.278 6.187 6.187 0 0 1-1.332-1.917 5.836 5.836 0 0 1-.49-2.407v-4.91a5.829 5.829 0 0 1 .49-2.384 6.11 6.11 0 0 1 1.333-1.94 6.18 6.18 0 0 1 1.971-1.286 6.304 6.304 0 0 1 2.44-.475h.319c.833 0 1.659.16 2.431.475a6.047 6.047 0 0 1 1.987 1.294 6.132 6.132 0 0 1 1.34 1.94c.323.75.485 1.56.476 2.377v4.909zM111.226 27.584c.04.511-.172 1.01-.569 1.333a1.94 1.94 0 0 1-1.239.436 2.829 2.829 0 0 1-.997-.171 1.613 1.613 0 0 1-.78-.78 2.797 2.797 0 0 1-1.238.78 4.91 4.91 0 0 1-1.091.132h-.64a6.67 6.67 0 0 1-2.54-.467 5.813 5.813 0 0 1-1.987-1.263 6.039 6.039 0 0 1-1.262-1.955 6.475 6.475 0 0 1-.452-2.447v-9.078a1.644 1.644 0 0 1 .561-1.356 1.917 1.917 0 0 1 2.47 0c.405.325.621.83.577 1.348v9.055a2.556 2.556 0 0 0 .78 1.854c.478.508 1.148.79 1.846.78H105a2.634 2.634 0 0 0 2.634-2.627v-9.062a1.613 1.613 0 0 1 .569-1.348 1.925 1.925 0 0 1 2.43.031c.392.338.603.84.57 1.356l.023 13.45z"/>
        <path fill="#FBD800" d="M32.65 50.634c0 .33-.069.657-.203.958a2.377 2.377 0 0 1-1.34 1.255 2.634 2.634 0 0 1-.998.179h-.117a2.603 2.603 0 0 1-1.784-.678 2.29 2.29 0 0 1-.546-.78 2.112 2.112 0 0 1-.202-.942v-3.78a2.174 2.174 0 0 1 .202-.95c.127-.294.312-.56.546-.78a2.51 2.51 0 0 1 .779-.506c.314-.118.646-.179.982-.179h.117c.304 0 .606.047.896.14.282.094.546.236.779.421.22.173.408.384.553.624.142.238.232.503.265.779v.078a.483.483 0 0 1-.226.436.912.912 0 0 1-.49.148.873.873 0 0 1-.476-.148.717.717 0 0 1-.288-.467.694.694 0 0 0-.367-.491 1.48 1.48 0 0 0-.646-.14h-.102a1.075 1.075 0 0 0-.779.28.92.92 0 0 0-.304.709v3.78a.935.935 0 0 0 .304.708c.209.2.491.304.78.289h.116c.285.011.564-.086.78-.273a.927.927 0 0 0 .319-.71V49.52h-.943a.639.639 0 0 1-.538-.218.732.732 0 0 1-.179-.49c0-.175.064-.344.18-.476a.639.639 0 0 1 .537-.218h1.675a.732.732 0 0 1 .523.21.686.686 0 0 1 .226.499l-.032 1.808zM38.945 47.065a2.29 2.29 0 0 1-.413 1.364 2.338 2.338 0 0 1-1.09.88l1.332 2.704a.701.701 0 0 1 .086.32.584.584 0 0 1-.242.49.78.78 0 0 1-.53.187.78.78 0 0 1-.366-.085.678.678 0 0 1-.273-.312l-1.558-3.117h-.78v2.813c.015.203-.07.4-.225.53a.88.88 0 0 1-1.021 0 .631.631 0 0 1-.234-.53v-7.075a.686.686 0 0 1 .226-.499.725.725 0 0 1 .514-.21h1.995c.35 0 .697.069 1.021.202.289.126.553.303.78.522.23.22.414.485.537.78.132.302.198.628.195.958l.046.078zm-1.472-.11a1.013 1.013 0 0 0-.289-.732.95.95 0 0 0-.732-.311h-1.31v2.19h1.326a.927.927 0 0 0 .716-.305c.181-.2.279-.462.273-.732l.016-.11zM44.93 50.595c.001.328-.068.652-.203.95a2.626 2.626 0 0 1-.553.78c-.224.22-.489.394-.78.514-.314.126-.65.19-.989.187h-.117c-.336.003-.67-.06-.982-.187a2.478 2.478 0 0 1-.779-.514 2.75 2.75 0 0 1-.545-.78 2.283 2.283 0 0 1-.203-.95V45.14a.639.639 0 0 1 .226-.53.85.85 0 0 1 1.021 0c.155.131.239.328.226.53v5.455a.974.974 0 0 0 .312.732c.204.208.488.319.779.304h.117c.29.01.572-.1.779-.304a.974.974 0 0 0 .312-.732V45.14a.623.623 0 0 1 .233-.53.78.78 0 0 1 .507-.171.78.78 0 0 1 .506.171c.16.128.248.326.234.53l-.101 5.455zM51.273 46.956c0 .33-.068.657-.203.958a2.626 2.626 0 0 1-.553.78 2.626 2.626 0 0 1-1.785.709h-1.176v2.93c.014.202-.07.4-.226.53-.15.109-.33.169-.514.17a.865.865 0 0 1-.507-.17.631.631 0 0 1-.226-.53v-7.1a.67.67 0 0 1 .218-.498.725.725 0 0 1 .515-.21h1.916c.337-.003.67.06.982.187.601.246 1.086.71 1.356 1.301.134.296.203.618.203.943m-1.473 0a.982.982 0 0 0-.086-.398.95.95 0 0 0-.226-.327.958.958 0 0 0-.335-.218 1.068 1.068 0 0 0-.42-.086h-1.177v2.065h1.176c.292.016.576-.095.78-.304a.974.974 0 0 0 .311-.732M57.374 50.634c.003.33-.063.656-.195.958a2.416 2.416 0 0 1-1.317 1.286c-.318.12-.656.181-.997.18h-.11c-.336.002-.67-.062-.981-.188a2.673 2.673 0 0 1-.78-.499 2.408 2.408 0 0 1-.545-.779 2.252 2.252 0 0 1-.257-.943v-3.802a2.283 2.283 0 0 1 .203-.95c.13-.293.315-.558.545-.78.227-.215.49-.387.78-.507.313-.12.646-.18.981-.179h.11c.34-.002.678.059.997.18.288.119.553.29.779.506.228.223.41.487.538.78.132.298.198.623.194.95l.055 3.787zm-1.473-3.787a.904.904 0 0 0-.311-.71 1.083 1.083 0 0 0-.78-.28h-.109a1.083 1.083 0 0 0-.779.28.904.904 0 0 0-.312.71v3.779a.943.943 0 0 0 .312.717c.212.193.493.294.78.28h.108c.287.014.567-.087.78-.28a.904.904 0 0 0 .311-.71v-3.786z"/>
        <path fill="#FFF" d="M104.127 44.416a.88.88 0 0 0-.943.865v4.324a.95.95 0 0 0 1.894 0v-4.324a.873.873 0 0 0-.95-.865m0 6.911a.85.85 0 0 0-.944.78v.202c0 .514.491.78.943.78.452 0 .95-.234.95-.78v-.203c0-.444-.389-.779-.95-.779"/>
        <path fill="#FBD800" d="M88.418 44.416h-.195a.78.78 0 0 0-.779.615l-1.558 3.437-1.559-3.437c-.156-.335-.335-.615-.779-.615h-.187a.78.78 0 0 0-.74.709v7.207a.78.78 0 0 0 1.48 0v-4.488l1.083 2.408a.834.834 0 0 0 1.504 0l.99-2.408v4.496a.78.78 0 0 0 1.48 0v-7.215a.78.78 0 0 0-.74-.71zM77.51 46.753v-.179c0-.483.436-.78.997-.78h.18c.608 0 1.013.258 1.013.585 0 .889 1.465.873 1.465 0 0-1.176-1.17-1.963-2.478-1.963h-.117c-1.107 0-2.47.779-2.47 2.096v.257c0 2.244 3.701 2.392 3.701 3.896 0 .631-.468.935-1.114.935h-.117a.982.982 0 0 1-1.083-1.044.78.78 0 0 0-1.48 0 2.408 2.408 0 0 0 2.563 2.447h.117a2.377 2.377 0 0 0 2.595-2.338c0-2.54-3.71-2.946-3.71-3.896l-.062-.016zm-10.434-2.322h-.187a.78.78 0 0 0-.779.616l-1.558 3.436-1.559-3.436c-.156-.335-.327-.616-.779-.616h-.195a.78.78 0 0 0-.732.71v7.207a.74.74 0 0 0 1.472 0v-4.504l1.084 2.408a.78.78 0 0 0 .779.475.78.78 0 0 0 .779-.475l.896-2.408v4.496a.78.78 0 0 0 1.48 0v-7.215a.78.78 0 0 0-.74-.71l.04.016zm5.813.585a.78.78 0 0 0-.818-.6.78.78 0 0 0-.78.6l-2.337 7.106a.49.49 0 0 0-.039.234.71.71 0 0 0 .78.678.686.686 0 0 0 .693-.491l.468-1.488h2.524l.468 1.488c.08.304.364.509.678.49a.701.701 0 0 0 .779-.677.865.865 0 0 0-.04-.234l-2.376-7.106zm-1.62 4.628l.779-2.587.779 2.587h-1.558zm22.013-5.228h-.11a2.462 2.462 0 0 0-2.548 2.407v3.81a2.455 2.455 0 0 0 2.548 2.4h.11a2.439 2.439 0 0 0 2.548-2.407v-3.803a2.447 2.447 0 0 0-2.556-2.407h.008zm1.067 6.233a1.02 1.02 0 0 1-1.075.998h-.11a1.02 1.02 0 0 1-1.075-1.005v-3.819a1.02 1.02 0 0 1 1.076-.997h.109a1.02 1.02 0 0 1 1.075.997v3.826zm16.13.92h-2.51v-6.444a.78.78 0 0 0-1.48 0v7.13a.78.78 0 0 0 .74.716h3.25a.71.71 0 1 0 0-1.418v.016zm-9.078-7.153a.67.67 0 0 0-.701.537l-1.2 4.91-1.2-4.91a.67.67 0 0 0-.686-.537.717.717 0 0 0-.78.685v.187l1.8 7.177a.88.88 0 0 0 1.653 0l1.8-7.177a.545.545 0 0 0 0-.187.71.71 0 0 0-.78-.685h.094z"/>
        <path fill="#FFF" d="M.764 37.465a.873.873 0 0 0 .904.904h108.67a.912.912 0 1 0 0-1.824H1.683a.873.873 0 0 0-.92.92"/>
        <path fill="#707579" d="M179.478 14.338a27.187 27.187 0 0 0-16.636-8.946 27.273 27.273 0 1 0-9.647 53.61 27.273 27.273 0 0 0 26.283-44.664"/>
        <path fill="#FFF" d="M146.984 28.41l1.793.374-.28-3.116-1.513 2.742zm-6.818 3.437h-.163a3.39 3.39 0 0 1-1.154-.203c-.36-.137-.69-.34-.974-.6a3.008 3.008 0 0 1-.662-.966 3.296 3.296 0 0 1-.234-1.27.834.834 0 0 1 .289-.678.958.958 0 0 1 1.207 0c.197.168.304.42.289.678-.027.349.098.692.342.943.247.224.572.341.904.327h.148c.341.017.677-.085.951-.288.245-.209.375-.522.35-.842a1.06 1.06 0 0 0-.272-.78 3.327 3.327 0 0 0-.78-.623c-.31-.194-.662-.39-1.036-.584a8.12 8.12 0 0 1-1.083-.647c-.33-.24-.62-.532-.857-.865a2.088 2.088 0 0 1-.358-1.23v-.266c-.004-.398.09-.791.272-1.145.17-.336.405-.633.694-.873a3.062 3.062 0 0 1 1.995-.74h.14c.36.001.72.051 1.068.148.338.093.658.246.942.452.282.206.513.472.678.779.17.33.255.697.25 1.068v.085a.818.818 0 0 1-.25.616.865.865 0 0 1-.615.234.78.78 0 0 1-.616-.234 1.161 1.161 0 0 1-.304-.553.888.888 0 0 0-.35-.647 1.605 1.605 0 0 0-.78-.156h-.132a1.364 1.364 0 0 0-.429.062c-.136.037-.263.1-.374.187a.904.904 0 0 0-.272.296.78.78 0 0 0-.102.374v.289c.008.192.103.37.257.483.246.2.506.38.78.538l1.052.584a6.6 6.6 0 0 1 1.083.732c.34.287.63.63.857 1.013.242.427.364.912.35 1.403a2.836 2.836 0 0 1-.911 2.112c-.288.25-.621.443-.982.569a3.545 3.545 0 0 1-1.192.194l-.016.024zm9.928 1.45a1.27 1.27 0 0 1-.242 0 .966.966 0 0 1-.452-.25.85.85 0 0 1-.25-.546l-.179-1.862-2.883-.608-.896 1.637a.78.78 0 0 1-.46.397.935.935 0 0 1-.522 0 .912.912 0 0 1-.584-.359.826.826 0 0 1-.132-.646.686.686 0 0 1 0-.117.732.732 0 0 1 .046-.14l4.528-8.058a.904.904 0 0 1 .506-.428c.195-.07.405-.086.608-.047.2.046.385.142.537.28.17.155.272.371.281.6l.896 9.18v.273a.78.78 0 0 1-.382.553.78.78 0 0 1-.444.125l.024.015zm2.719 1.37c-.14 0-.277-.03-.405-.085a.974.974 0 0 1-.46-.444.78.78 0 0 1 0-.733l3.35-7.13-1.028-.467a.834.834 0 0 1-.49-.553.99.99 0 0 1 .054-.624.974.974 0 0 1 .452-.452.826.826 0 0 1 .74 0l3.764 1.777a.78.78 0 0 1 .49.553.92.92 0 0 1-.062.631.88.88 0 0 1-.444.444.826.826 0 0 1-.74 0l-1.068-.506-3.358 7.122a.78.78 0 0 1-.553.483 1.036 1.036 0 0 1-.219 0l-.023-.015zM157.823 9.717a1.589 1.589 0 1 0 .616 3.117c4.332-.865 9.888-4.808 12.397-8.805a1.558 1.558 0 0 0-.506-2.182 1.558 1.558 0 0 0-.834-.242 1.597 1.597 0 0 0-1.348.78c-2.034 3.241-6.857 6.685-10.325 7.379v-.047zm5.455-6.187c0-1.348-1.192-2.283-2.891-2.283-1.41 0-2.836.779-2.836 2.283v.631c0 1.558 1.48 2.236 2.836 2.236 1.356 0 2.89-.693 2.89-2.236V3.53zm14.532.054a1.558 1.558 0 0 0-.826-2.088c-.2-.085-.414-.13-.63-.132a1.558 1.558 0 0 0-1.458.958c-2.984 6.88-11.641 13.247-19.286 14.244a1.571 1.571 0 0 0 .398 3.117c8.634-1.099 18.413-8.338 21.818-16.13l-.016.031z"/>
        <path fill="#FBD800" d="M168.857 45.335c-.054.07-.109.148-.171.218a26.61 26.61 0 0 1-14.128 8.572 25.527 25.527 0 0 1-4.807.662 26.548 26.548 0 0 1-4.496-.25 27.21 27.21 0 0 1-7.232-2.158c-.522-.273-1.052-.53-1.558-.834a26.634 26.634 0 0 1-8.026-7.464 27.055 27.055 0 0 1-4.036-8.704 20.104 20.104 0 0 0 3.327 3 37.075 37.075 0 0 0 7.254 4.036 52.122 52.122 0 0 0 5.073 1.831 55.675 55.675 0 0 0 6.016 1.699 54.296 54.296 0 0 0 10.301 1.286 36.49 36.49 0 0 0 9.055-.78 19.917 19.917 0 0 0 3.428-1.106m11.065-17.922a12.125 12.125 0 0 0-.88-3.047c-.328-.686-.64-1.029-.881-.982-.242.047-.226.156-.304.366-.32-.662-.623-.997-.865-.95a.397.397 0 0 0-.21.187.483.483 0 0 0-.374-.187c-.499.101-.561 1.706-.78 4.153a40.862 40.862 0 0 1-1.714 9.195c-.101.312-.218.654-.35 1.013a8.267 8.267 0 0 0-.717-1.504 15.49 15.49 0 0 0-3.483-3.81 29.431 29.431 0 0 0-4.465-2.946l-.405-.21-.78-.413-.397-.203c-.094-.047-.35-.18-.475-.047s.124.304.296.406a27.623 27.623 0 0 1 4.23 2.883 14.51 14.51 0 0 1 3.235 3.678 6.132 6.132 0 0 1 .92 4.02 5.782 5.782 0 0 1-2.339 3.655 14.805 14.805 0 0 1-5.766 2.493c-2.762.59-5.586.836-8.408.733a50.65 50.65 0 0 1-9.506-1.177l-1.512-.366a49.613 49.613 0 0 1-6.109-2.104 37.765 37.765 0 0 1-3.226-1.558 27.803 27.803 0 0 1-2.96-1.878 16.597 16.597 0 0 1-3.858-3.756 7.294 7.294 0 0 1-1.371-3.273c-.106-.83.01-1.675.335-2.447a5.782 5.782 0 0 1 1.028-1.558 13.91 13.91 0 0 1 3.655-2.727c1.145-.631 1.948-1.021 1.66-1.224a.997.997 0 0 0-.359-.085.117.117 0 0 0-.047-.125 2.338 2.338 0 0 0-1.09-.094c.054-.077.054-.14 0-.187a2.22 2.22 0 0 0-1.123-.093c-.745.058-1.483.186-2.205.382a12.67 12.67 0 0 0-2.634.99 8.135 8.135 0 0 0-2.12 1.558c.079-1.068.225-2.13.437-3.18a27.358 27.358 0 0 1 10.722-16.73 27.78 27.78 0 0 1 19.325-5.189s.312 0 .312-.265c0-.187-.156-.296-.351-.327a27.756 27.756 0 0 0-3.187-.382l-.78-.039h-2.36a28.2 28.2 0 0 0-7.442 1.153 28.582 28.582 0 0 0-8.096 3.959 28.223 28.223 0 0 0-7.145 7.27 28.831 28.831 0 0 0-4.34 10.208 28.114 28.114 0 0 0-.616 6.187v.265c0 16.075 13.465 29.111 30.07 29.111h.444a29.61 29.61 0 0 0 16.364-4.675 29.361 29.361 0 0 0 6.475-5.61 28.831 28.831 0 0 0 5.688-10.13c.596-1.85.96-3.765 1.083-5.704a20.338 20.338 0 0 0-.226-4.714"/>
    </g>
</svg>
