<svg xmlns="http://www.w3.org/2000/svg" width="162" height="52" viewBox="0 0 162 52">
    <g fill="none" fill-rule="nonzero">
        <path fill="#FCD900" d="M16.645 27.958a29.686 29.686 0 0 1-7.06-.75 15.561 15.561 0 0 1-5.015-2.086 9.129 9.129 0 0 1-2.916-3.106 8.012 8.012 0 0 1-.992-3.897c.013-1.859.524-3.68 1.478-5.274a14.699 14.699 0 0 1 4.394-4.6 23.053 23.053 0 0 1 6.986-3.18 33.674 33.674 0 0 1 9.322-1.222c4.005 0 7.052.45 9.14 1.35 2.092.871 3.138 2.188 3.138 3.937 0 1.75-.911 3.114-2.7 4.316a19.974 19.974 0 0 1-7.425 2.701c-2.47.507-4.563.864-6.304 1.087-1.742.223-3.854.412-6.365.595.063.771.199 1.536.404 2.282a6.208 6.208 0 0 0 1.006 2.161 5.495 5.495 0 0 0 2.302 1.634 9.992 9.992 0 0 0 3.767.608 19.06 19.06 0 0 0 6.75-1.053 16.78 16.78 0 0 0 5.291-3.336l2.457 1.404a21.99 21.99 0 0 1-7.735 4.728 28.054 28.054 0 0 1-9.923 1.701m7.567-18.233a4.087 4.087 0 0 0-1.046-3.006 3.907 3.907 0 0 0-2.889-1.046c-1.728 0-3.375.965-4.894 2.89a14.922 14.922 0 0 0-2.943 7.314 80.257 80.257 0 0 0 3.935-.419 20.329 20.329 0 0 0 3.092-.594 8.099 8.099 0 0 0 3.632-1.959 4.492 4.492 0 0 0 1.113-3.18"/>
        <path fill="#40474C" d="M56.261 23.906a1.35 1.35 0 0 1-.506 1.155 1.761 1.761 0 0 1-1.094.378 1.647 1.647 0 0 1-1.039-.378 1.35 1.35 0 0 1-.493-1.155V16.04a2.162 2.162 0 0 0-.675-1.614 2.254 2.254 0 0 0-1.627-.675h-.296a2.24 2.24 0 0 0-1.627.675 2.168 2.168 0 0 0-.675 1.614v7.8c.036.461-.152.911-.507 1.209a1.646 1.646 0 0 1-2.133 0 1.46 1.46 0 0 1-.486-1.209v-7.8a2.168 2.168 0 0 0-.675-1.614 2.24 2.24 0 0 0-1.626-.675h-.29a2.26 2.26 0 0 0-1.634.675 2.189 2.189 0 0 0-.675 1.614v7.867a1.35 1.35 0 0 1-.493 1.155 1.68 1.68 0 0 1-1.073.378 1.714 1.714 0 0 1-1.06-.378 1.35 1.35 0 0 1-.506-1.155V12.223a1.412 1.412 0 0 1 .493-1.175c.301-.25.68-.39 1.073-.391a2.2 2.2 0 0 1 .911.162c.292.146.529.383.675.675.28-.289.629-.502 1.013-.621a3.98 3.98 0 0 1 1.303-.23h.29a5.243 5.243 0 0 1 2.2.426 5.73 5.73 0 0 1 1.681 1.175 5.501 5.501 0 0 1 1.68-1.169c.676-.285 1.401-.43 2.134-.425h.297c1.84 0 3.208.473 4.104 1.418a5.404 5.404 0 0 1 1.35 3.863l-.014 7.975zM66.541 16.032a2.175 2.175 0 0 0-.674-1.607 2.2 2.2 0 0 0-1.614-.675h-.263a2.282 2.282 0 0 0-2.282 2.275v4.052c.008.596.25 1.164.675 1.58a2.153 2.153 0 0 0 1.614.676h.263a2.2 2.2 0 0 0 1.613-.675c.44-.418.685-1.001.675-1.608l-.007-4.018zm3.126 4.052a5.29 5.29 0 0 1-.419 2.107 5.403 5.403 0 0 1-1.16 1.688c-.492.496-1.08.885-1.729 1.142a5.398 5.398 0 0 1-2.099.412h-.23a6.524 6.524 0 0 1-1.093-.135 2.214 2.214 0 0 1-1.222-.676c-.099.256-.282.47-.52.608a2.065 2.065 0 0 1-1.046.216 1.707 1.707 0 0 1-1.073-.391 1.35 1.35 0 0 1-.486-1.142V5.41a1.425 1.425 0 0 1 .486-1.175 1.673 1.673 0 0 1 2.153 0c.338.294.518.729.486 1.175v6.078c.353-.312.77-.543 1.222-.675.355-.11.722-.175 1.094-.196h.229a5.276 5.276 0 0 1 2.1.426c.643.266 1.23.654 1.727 1.14a5.173 5.173 0 0 1 1.161 1.716c.28.665.422 1.38.419 2.1v4.086zM79.88 15.93a2.026 2.026 0 0 0-.675-1.552 2.267 2.267 0 0 0-1.593-.601h-.264a2.267 2.267 0 0 0-1.613.62c-.44.395-.687.963-.675 1.554v4.234a2.026 2.026 0 0 0 .675 1.56 2.294 2.294 0 0 0 1.613.615h.264a2.294 2.294 0 0 0 1.613-.615c.442-.395.69-.966.675-1.56l-.02-4.254zm3.132 4.262a5.054 5.054 0 0 1-.419 2.087 5.403 5.403 0 0 1-1.161 1.661 5.096 5.096 0 0 1-1.721 1.108 5.83 5.83 0 0 1-2.106.391h-.264a5.708 5.708 0 0 1-2.112-.391 5.204 5.204 0 0 1-1.715-1.108 5.362 5.362 0 0 1-1.154-1.661 5.06 5.06 0 0 1-.425-2.087v-4.254a5.054 5.054 0 0 1 .425-2.067 5.295 5.295 0 0 1 1.154-1.681 5.353 5.353 0 0 1 1.708-1.115 5.458 5.458 0 0 1 2.113-.412h.277c.722 0 1.437.14 2.106.412a5.238 5.238 0 0 1 1.72 1.121c.493.48.887 1.052 1.162 1.682.28.65.42 1.352.412 2.06v4.254zM96.35 23.906a1.35 1.35 0 0 1-.493 1.155 1.68 1.68 0 0 1-1.073.378 2.45 2.45 0 0 1-.865-.148 1.398 1.398 0 0 1-.674-.675c-.292.316-.662.55-1.074.675a4.25 4.25 0 0 1-.945.115h-.553c-.753.01-1.5-.128-2.2-.405a5.035 5.035 0 0 1-1.722-1.095 5.234 5.234 0 0 1-1.094-1.695 5.614 5.614 0 0 1-.391-2.12v-7.868a1.425 1.425 0 0 1 .486-1.175 1.66 1.66 0 0 1 2.14 0c.35.282.538.72.5 1.169v7.847c-.005.605.24 1.186.674 1.607.415.44.996.685 1.6.675h.29a2.282 2.282 0 0 0 2.282-2.275v-7.854c-.032-.446.151-.88.493-1.169.619-.492 1.499-.48 2.106.027.339.293.52.728.492 1.175l.02 11.656zM28.282 43.883c.001.286-.059.569-.175.83a2.06 2.06 0 0 1-1.161 1.088 2.28 2.28 0 0 1-.864.155h-.101a2.254 2.254 0 0 1-1.546-.588 1.985 1.985 0 0 1-.473-.675 1.83 1.83 0 0 1-.175-.817V40.6a1.885 1.885 0 0 1 .175-.824c.11-.256.27-.485.473-.676.196-.187.425-.336.675-.439.272-.102.56-.155.85-.155h.102c.263 0 .525.04.776.122a2.2 2.2 0 0 1 .675.364c.19.15.353.333.48.54.122.207.2.437.229.676v.067a.419.419 0 0 1-.196.379.79.79 0 0 1-.425.128.756.756 0 0 1-.412-.128.621.621 0 0 1-.25-.406.601.601 0 0 0-.317-.425 1.282 1.282 0 0 0-.56-.122h-.088a.931.931 0 0 0-.675.243.797.797 0 0 0-.263.615v3.275a.81.81 0 0 0 .263.615c.18.173.425.263.675.25h.101a.972.972 0 0 0 .675-.237.804.804 0 0 0 .277-.614v-.932h-.817a.553.553 0 0 1-.466-.19.635.635 0 0 1-.155-.425c0-.151.056-.298.155-.412a.553.553 0 0 1 .466-.189h1.451a.634.634 0 0 1 .453.183c.122.11.193.267.195.432l-.027 1.567zM33.736 40.79c.01.422-.115.836-.357 1.181-.23.346-.56.612-.945.764l1.154 2.343c.046.085.072.18.074.277a.507.507 0 0 1-.209.425.675.675 0 0 1-.459.162.675.675 0 0 1-.317-.074.587.587 0 0 1-.236-.27l-1.35-2.701h-.675v2.438a.547.547 0 0 1-.196.459.762.762 0 0 1-.884 0 .547.547 0 0 1-.203-.46v-6.131a.594.594 0 0 1 .196-.433.628.628 0 0 1 .445-.182h1.728c.304 0 .604.06.884.176.25.109.48.262.675.452.201.19.36.42.466.675.114.262.172.545.169.831l.04.068zm-1.275-.095a.878.878 0 0 0-.25-.635.823.823 0 0 0-.634-.27h-1.135v1.898h1.148a.803.803 0 0 0 .621-.264.919.919 0 0 0 .236-.634l.014-.095zM38.92 43.849a1.98 1.98 0 0 1-.175.824c-.117.252-.28.481-.48.675a2.12 2.12 0 0 1-1.532.608h-.1a2.22 2.22 0 0 1-.851-.162 2.146 2.146 0 0 1-.675-.446 2.384 2.384 0 0 1-.473-.675 1.98 1.98 0 0 1-.175-.824v-4.727a.554.554 0 0 1 .195-.46.735.735 0 0 1 .885 0 .554.554 0 0 1 .195.46v4.727a.844.844 0 0 0 .27.635c.178.18.423.276.675.263h.102a.918.918 0 0 0 .675-.263.844.844 0 0 0 .27-.635v-4.727a.54.54 0 0 1 .202-.46c.124-.1.28-.152.439-.148a.675.675 0 0 1 .439.148.54.54 0 0 1 .202.46l-.088 4.727zM44.415 40.695c0 .286-.059.57-.175.83-.118.253-.28.482-.48.676-.419.393-.971.612-1.545.615h-1.02v2.539a.547.547 0 0 1-.196.459.77.77 0 0 1-.445.149.749.749 0 0 1-.439-.149.547.547 0 0 1-.196-.46v-6.151a.58.58 0 0 1 .19-.433.628.628 0 0 1 .445-.182h1.66c.292-.002.58.053.851.162.52.213.94.616 1.175 1.128.116.257.176.535.175.817m-1.276 0a.851.851 0 0 0-.074-.344.824.824 0 0 0-.196-.284.83.83 0 0 0-.29-.19.924.924 0 0 0-.364-.073h-1.02v1.79h1.02a.877.877 0 0 0 .674-.264.844.844 0 0 0 .27-.635M49.7 43.883c.003.285-.054.568-.169.83a2.092 2.092 0 0 1-1.14 1.114 2.395 2.395 0 0 1-.864.156h-.095a2.22 2.22 0 0 1-.85-.162 2.315 2.315 0 0 1-.675-.432 2.087 2.087 0 0 1-.473-.676 1.952 1.952 0 0 1-.222-.817v-3.295a1.98 1.98 0 0 1 .175-.824c.113-.254.273-.483.472-.676.197-.186.426-.335.675-.439.272-.104.56-.156.851-.155h.095c.295-.002.588.05.864.155.25.104.478.253.675.44.197.192.355.422.465.675.115.259.172.54.169.824l.047 3.282zM48.424 40.6a.784.784 0 0 0-.27-.615.938.938 0 0 0-.675-.243h-.094a.938.938 0 0 0-.675.243.784.784 0 0 0-.27.615v3.275a.817.817 0 0 0 .27.621.938.938 0 0 0 .675.243h.095a.938.938 0 0 0 .675-.243.784.784 0 0 0 .27-.614V40.6z"/>
        <path fill="#FCD900" d="M90.2 38.494a.763.763 0 0 0-.817.75v3.747a.824.824 0 0 0 1.64 0v-3.748a.757.757 0 0 0-.823-.75m0 5.99a.736.736 0 0 0-.817.676v.176c0 .445.426.675.817.675.392 0 .824-.203.824-.675v-.176c0-.385-.338-.675-.824-.675"/>
        <path fill="#40474C" d="M76.592 38.494h-.168a.675.675 0 0 0-.675.533l-1.35 2.978-1.35-2.978c-.136-.29-.29-.533-.675-.533h-.162a.675.675 0 0 0-.642.614v6.247a.675.675 0 0 0 1.283 0v-3.89l.938 2.087a.722.722 0 0 0 1.303 0l.857-2.087v3.897a.675.675 0 0 0 1.283 0v-6.254a.675.675 0 0 0-.642-.614zm-9.45 2.025v-.155c0-.419.378-.675.864-.675h.156c.526 0 .877.223.877.506 0 .77 1.269.757 1.269 0 0-1.02-1.013-1.701-2.147-1.701h-.1c-.96 0-2.14.675-2.14 1.816v.223c0 1.945 3.206 2.073 3.206 3.377 0 .547-.405.81-.965.81h-.102a.85.85 0 0 1-.938-.905.675.675 0 0 0-1.282 0 2.087 2.087 0 0 0 2.22 2.12h.102a2.058 2.058 0 0 0 2.247-2.025c0-2.202-3.213-2.553-3.213-3.377l-.054-.014zm-9.038-2.012h-.162a.675.675 0 0 0-.675.534l-1.35 2.978-1.35-2.978c-.135-.29-.284-.534-.675-.534h-.169a.675.675 0 0 0-.634.615v6.246a.641.641 0 0 0 1.276 0v-3.903l.938 2.087a.675.675 0 0 0 .675.412.675.675 0 0 0 .675-.412l.776-2.087v3.897a.675.675 0 0 0 1.282 0v-6.254a.675.675 0 0 0-.64-.614l.033.013zm5.035.507a.675.675 0 0 0-.708-.52.675.675 0 0 0-.675.52l-2.025 6.158a.426.426 0 0 0-.034.203.615.615 0 0 0 .675.588.594.594 0 0 0 .6-.426l.406-1.29h2.187l.405 1.29c.07.263.315.441.587.426a.607.607 0 0 0 .675-.588.75.75 0 0 0-.034-.203l-2.058-6.158zm-1.404 4.01l.675-2.241.676 2.242h-1.35zm19.07-4.53h-.095a2.132 2.132 0 0 0-2.207 2.086v3.303a2.128 2.128 0 0 0 2.207 2.08h.094a2.112 2.112 0 0 0 2.207-2.087V40.58a2.121 2.121 0 0 0-2.213-2.086h.006zm.924 5.402a.885.885 0 0 1-.931.865h-.095a.884.884 0 0 1-.931-.872V40.58a.885.885 0 0 1 .931-.864h.094a.884.884 0 0 1 .932.864v3.316zm13.972.797h-2.173v-5.585a.675.675 0 0 0-1.282 0v6.18c.026.338.301.605.64.62h2.816a.614.614 0 0 0 0-1.229v.014zm-7.863-6.2a.58.58 0 0 0-.608.466l-1.04 4.255-1.039-4.255a.58.58 0 0 0-.594-.465.62.62 0 0 0-.675.594v.162l1.56 6.22a.763.763 0 0 0 1.43 0l1.56-6.22a.473.473 0 0 0 0-.162.615.615 0 0 0-.675-.594h.08z"/>
        <path fill="#FCD900" d="M.661 32.47a.757.757 0 0 0 .783.783H95.58a.79.79 0 0 0 0-1.58H1.458a.756.756 0 0 0-.796.797"/>
        <g>
            <path fill="#FCD900" d="M155.473 12.426a23.547 23.547 0 0 0-14.411-7.753 23.618 23.618 0 0 0-23.167 7.446 23.645 23.645 0 0 0-4.309 23.959 23.627 23.627 0 0 0 19.119 15.058 23.62 23.62 0 0 0 25.394-11.107 23.645 23.645 0 0 0-2.626-27.603"/>
            <path fill="#40474C" d="M127.325 24.622l1.553.324-.243-2.7-1.31 2.376zm-5.906 2.979h-.142c-.34 0-.678-.06-.999-.176a2.639 2.639 0 0 1-.843-.52 2.607 2.607 0 0 1-.574-.837 2.858 2.858 0 0 1-.203-1.101.723.723 0 0 1 .25-.588.83.83 0 0 1 1.046 0c.171.146.263.364.25.588-.023.302.085.6.297.817.213.194.495.296.783.284h.128c.295.014.586-.074.824-.25a.871.871 0 0 0 .304-.73.919.919 0 0 0-.237-.675 2.882 2.882 0 0 0-.675-.54c-.27-.17-.573-.338-.897-.507a7.033 7.033 0 0 1-.939-.56 3.261 3.261 0 0 1-.742-.75 1.81 1.81 0 0 1-.31-1.067v-.23a2.115 2.115 0 0 1 .236-.992c.146-.291.35-.549.6-.757a2.652 2.652 0 0 1 1.728-.641h.122c.312.001.623.044.925.128.293.08.57.213.816.392.244.178.445.41.588.675.146.286.22.604.216.925v.075a.71.71 0 0 1-.216.533.749.749 0 0 1-.534.203.675.675 0 0 1-.533-.203 1.006 1.006 0 0 1-.263-.48.77.77 0 0 0-.304-.56 1.39 1.39 0 0 0-.675-.135h-.115a1.18 1.18 0 0 0-.371.054.911.911 0 0 0-.324.162.783.783 0 0 0-.236.257.676.676 0 0 0-.088.324v.25c.007.166.089.32.223.419.212.173.438.328.675.466l.911.506c.333.18.647.393.938.635.295.248.546.545.743.878.21.37.315.79.304 1.215a2.46 2.46 0 0 1-.79 1.83c-.25.218-.538.385-.85.493a3.07 3.07 0 0 1-1.033.17l-.014.02zm8.6 1.256a1.1 1.1 0 0 1-.21 0 .837.837 0 0 1-.391-.216.736.736 0 0 1-.216-.473l-.155-1.614-2.498-.527-.776 1.418a.675.675 0 0 1-.398.345.81.81 0 0 1-.453 0 .79.79 0 0 1-.506-.311.716.716 0 0 1-.115-.56.595.595 0 0 1 0-.102.635.635 0 0 1 .04-.121l3.922-6.983a.783.783 0 0 1 .44-.372c.168-.06.35-.074.526-.04.173.04.334.123.465.243a.743.743 0 0 1 .244.52l.776 7.955v.237a.675.675 0 0 1-.331.48.675.675 0 0 1-.385.107l.02.014zm2.355 1.188a.884.884 0 0 1-.35-.074.844.844 0 0 1-.399-.385.676.676 0 0 1 0-.635l2.903-6.18-.891-.404a.722.722 0 0 1-.426-.48.858.858 0 0 1 .048-.54.844.844 0 0 1 .391-.392.715.715 0 0 1 .641 0l3.26 1.54a.675.675 0 0 1 .426.48.797.797 0 0 1-.054.547.763.763 0 0 1-.385.384.715.715 0 0 1-.641 0l-.925-.438-2.91 6.172a.675.675 0 0 1-.478.419.897.897 0 0 1-.19 0l-.02-.014zM136.714 8.421a1.376 1.376 0 0 0 .534 2.702c3.753-.75 8.566-4.167 10.739-7.632a1.351 1.351 0 0 0-.439-1.89 1.35 1.35 0 0 0-.722-.21c-.48.007-.922.263-1.168.675-1.761 2.81-5.94 5.795-8.943 6.396v-.04zm4.725-5.362c0-1.168-1.032-1.978-2.504-1.978-1.222 0-2.457.675-2.457 1.978v.547c0 1.35 1.283 1.938 2.457 1.938 1.175 0 2.504-.6 2.504-1.938V3.06zm12.59.047a1.351 1.351 0 0 0-.716-1.81 1.417 1.417 0 0 0-.547-.114 1.35 1.35 0 0 0-1.262.83c-2.585 5.964-10.085 11.481-16.706 12.345a1.361 1.361 0 0 0 .344 2.702c7.479-.953 15.95-7.226 18.9-13.98l-.014.027z"/>
            <path fill="#40474C" d="M146.273 39.29c-.048.061-.095.129-.149.19a23.05 23.05 0 0 1-12.238 7.428 22.103 22.103 0 0 1-4.164.574 22.986 22.986 0 0 1-3.895-.216 23.563 23.563 0 0 1-6.264-1.87c-.452-.237-.911-.46-1.35-.723a23.076 23.076 0 0 1-6.953-6.47 23.452 23.452 0 0 1-3.496-7.543c.86.971 1.827 1.843 2.882 2.6a32.112 32.112 0 0 0 6.284 3.498 45.137 45.137 0 0 0 4.395 1.587 48.21 48.21 0 0 0 5.21 1.472 47.013 47.013 0 0 0 8.924 1.114 31.596 31.596 0 0 0 7.844-.675c1.016-.23 2.01-.55 2.97-.959m9.585-15.532a10.512 10.512 0 0 0-.763-2.64c-.284-.595-.554-.892-.763-.852-.21.04-.196.135-.263.318-.277-.574-.54-.865-.75-.824a.344.344 0 0 0-.182.162.418.418 0 0 0-.324-.162c-.432.088-.486 1.479-.675 3.6a35.43 35.43 0 0 1-1.485 7.968c-.087.27-.189.567-.303.878a7.167 7.167 0 0 0-.621-1.303 13.423 13.423 0 0 0-3.018-3.303 25.494 25.494 0 0 0-3.867-2.552l-.351-.183-.675-.358-.345-.175c-.08-.04-.304-.156-.412-.04-.107.114.109.263.257.35a23.928 23.928 0 0 1 3.665 2.5 12.573 12.573 0 0 1 2.802 3.187 5.317 5.317 0 0 1 .796 3.484 5.011 5.011 0 0 1-2.025 3.168 12.822 12.822 0 0 1-4.995 2.16c-2.392.511-4.839.725-7.283.635a43.855 43.855 0 0 1-8.235-1.02l-1.31-.317a42.963 42.963 0 0 1-5.292-1.823 32.707 32.707 0 0 1-2.794-1.35 24.082 24.082 0 0 1-2.565-1.628 14.38 14.38 0 0 1-3.341-3.255 6.323 6.323 0 0 1-1.188-2.837 4.121 4.121 0 0 1 .29-2.12c.222-.496.523-.952.89-1.35a12.05 12.05 0 0 1 3.167-2.365c.992-.547 1.687-.884 1.437-1.06a.864.864 0 0 0-.31-.074.101.101 0 0 0-.04-.108 2.024 2.024 0 0 0-.946-.081c.048-.068.048-.122 0-.162a1.923 1.923 0 0 0-.972-.081c-.645.05-1.285.16-1.91.33-.79.2-1.555.489-2.281.858a7.047 7.047 0 0 0-1.836 1.35c.067-.925.193-1.845.378-2.754a23.712 23.712 0 0 1 9.288-14.5A24.055 24.055 0 0 1 133.448.94s.27 0 .27-.23c0-.162-.135-.257-.304-.284a24.032 24.032 0 0 0-2.761-.33l-.675-.034h-2.045c-2.184.043-4.352.38-6.447 1a24.754 24.754 0 0 0-7.013 3.43 24.455 24.455 0 0 0-6.19 6.3 24.993 24.993 0 0 0-3.76 8.847 24.377 24.377 0 0 0-.532 5.363v.23c0 13.931 11.664 25.23 26.048 25.23h.385a25.64 25.64 0 0 0 14.175-4.053 25.438 25.438 0 0 0 5.609-4.862 24.99 24.99 0 0 0 4.927-8.78 20.37 20.37 0 0 0 .939-4.943 17.634 17.634 0 0 0-.196-4.085"/>
        </g>
    </g>
</svg>
