<svg xmlns="http://www.w3.org/2000/svg" width="180" height="48" viewBox="0 0 180 48">
    <g fill="none" fill-rule="evenodd">
        <g fill="#FFF">
            <path d="M134.845 8.552a3.294 3.294 0 0 1-.98 2.377c-.303.3-.661.534-1.07.694a3.507 3.507 0 0 1-1.323.243h-.153c-.463 0-.896-.082-1.307-.252a3.302 3.302 0 0 1-1.07-.693 3.262 3.262 0 0 1-.726-1.037 3.154 3.154 0 0 1-.27-1.314V3.314c0-.469.089-.911.27-1.31.18-.4.42-.746.726-1.046.302-.3.66-.53 1.07-.702A3.362 3.362 0 0 1 131.319 0h.153c.413 0 .814.07 1.197.206.38.135.72.328 1.02.572.298.252.542.54.733.871.191.33.31.7.355 1.108v.1c0 .271-.101.472-.298.61a1.132 1.132 0 0 1-1.285 0c-.193-.138-.323-.348-.391-.642-.066-.326-.228-.557-.487-.686a1.89 1.89 0 0 0-.854-.194h-.153c-.39 0-.723.129-.996.39-.273.257-.41.582-.41.977v5.23c0 .391.137.72.41.983.273.268.606.398.996.398h.153a1.43 1.43 0 0 0 1.005-.384c.28-.26.418-.582.418-.978V7.018h-1.212c-.326 0-.567-.104-.725-.305a1.08 1.08 0 0 1-.235-.679c0-.236.077-.457.235-.658.158-.204.399-.306.725-.306h2.183c.262 0 .49.1.69.297.2.198.299.427.299.685v2.5zM141.241 3.484a1.45 1.45 0 0 0-.386-1.015 1.267 1.267 0 0 0-.978-.424h-1.72V5.07h1.77c.382 0 .697-.138.946-.42.246-.284.368-.618.368-1.013v-.153zm1.957.153c0 .71-.183 1.342-.548 1.89a3.262 3.262 0 0 1-1.457 1.22l1.77 3.735a.92.92 0 0 1 .118.438c0 .284-.105.51-.32.685a1.08 1.08 0 0 1-.71.261.942.942 0 0 1-.478-.125.885.885 0 0 1-.364-.432l-2.041-4.29h-1.011v3.884c0 .326-.1.572-.302.73-.203.155-.43.233-.675.233-.248 0-.473-.078-.677-.234-.202-.157-.303-.403-.303-.729v-9.82c0-.257.099-.485.296-.685a.943.943 0 0 1 .684-.296h2.646a3.363 3.363 0 0 1 2.396.982 3.365 3.365 0 0 1 .976 2.4v.153zM151.166 8.505c0 .461-.09.895-.269 1.31-.18.41-.421.767-.727 1.07-.301.306-.661.545-1.072.72a3.262 3.262 0 0 1-1.32.261h-.15c-.465 0-.9-.084-1.31-.261a3.328 3.328 0 0 1-1.07-.72 3.422 3.422 0 0 1-.725-1.07 3.23 3.23 0 0 1-.27-1.31V.982c0-.328.1-.572.301-.738a1.056 1.056 0 0 1 1.35 0c.205.166.306.41.306.736v7.506c0 .398.137.733.412 1.016.276.279.61.42 1.005.42h.151c.391 0 .729-.141 1.012-.42.281-.283.42-.618.42-1.016V.98c0-.326.102-.57.306-.736a1.048 1.048 0 0 1 1.347 0c.204.166.303.41.303.738v7.523zM157.646 3.466a1.435 1.435 0 0 0-.415-1.006 1.402 1.402 0 0 0-1.003-.415h-1.57v2.858h1.57c.391 0 .726-.137 1.002-.422.275-.28.416-.62.416-1.015m1.952 0c0 .478-.088.918-.267 1.329a3.39 3.39 0 0 1-1.797 1.791 3.306 3.306 0 0 1-1.307.261h-1.568v4.056c0 .327-.101.572-.305.729a1.075 1.075 0 0 1-.673.234 1.08 1.08 0 0 1-.676-.234c-.201-.157-.303-.402-.303-.73V1.085c0-.258.1-.486.294-.687a.95.95 0 0 1 .685-.295h2.546c.46 0 .896.089 1.307.262.41.175.767.414 1.07.72.304.304.545.662.727 1.072.18.413.267.849.267 1.31M165.755 3.312c0-.395-.136-.72-.413-.978a1.406 1.406 0 0 0-1.002-.389h-.151c-.395 0-.73.13-1.007.389a1.283 1.283 0 0 0-.413.978v5.23c0 .391.138.72.413.983.277.268.612.398 1.007.398h.15c.395 0 .728-.13 1.003-.388a1.28 1.28 0 0 0 .413-.977V3.312zm1.957 5.24c0 .475-.087.915-.262 1.32-.175.404-.415.76-.717 1.057-.303.3-.66.534-1.07.693a3.493 3.493 0 0 1-1.323.245h-.151c-.463 0-.9-.082-1.312-.253a3.37 3.37 0 0 1-1.068-.693 3.24 3.24 0 0 1-.995-2.351V3.314c0-.469.09-.911.272-1.31.175-.4.42-.746.723-1.047a3.392 3.392 0 0 1 2.38-.956h.15c.472 0 .911.083 1.324.254.41.172.767.404 1.07.702.302.301.542.648.717 1.046.175.4.262.842.262 1.311v5.238z"/>
        </g>
        <path fill="#FFF" d="M153.932 41.034c-1.674 0-3.369.97-3.369 2.806v.765c0 1.905 1.749 2.77 3.369 2.77 1.698 0 3.409-.855 3.409-2.77v-.765c0-1.65-1.4-2.806-3.41-2.806m0-25.775c-1.674 0-3.368 1.112-3.368 3.236v16.11c0 2.188 1.749 3.182 3.369 3.182 1.698 0 3.409-.982 3.409-3.182v-16.11c0-1.9-1.4-3.236-3.41-3.236"/>
        <path fill="#FFE200" d="M144.166 15.26c-1.094 0-2.19.597-2.509 2.013l-4.288 18.302-4.295-18.302c-.317-1.416-1.415-2.013-2.462-2.013-1.412 0-2.735.96-2.735 2.568 0 .136.044.365.087.685l6.438 26.755c.318 1.284 1.37 2.107 2.967 2.107s2.649-.823 2.968-2.107l6.431-26.755c.047-.138.095-.369.095-.685 0-1.608-1.369-2.568-2.697-2.568zm32.543 26.628h-8.99v-23.97c0-1.787-1.328-2.658-2.648-2.658-1.327 0-2.651.87-2.651 2.658v26.579c0 1.414 1.236 2.65 2.651 2.65h11.638c1.778 0 2.646-1.328 2.646-2.609 0-1.328-.868-2.65-2.646-2.65zm-57.78-3.432c0 2.145-1.689 3.704-3.831 3.704h-.408c-2.145 0-3.835-1.601-3.835-3.751V24.23c0-2.153 1.69-3.707 3.835-3.707h.408c2.142 0 3.83 1.554 3.83 3.707v14.225zm-3.831-23.196h-.408c-4.977 0-9.13 3.893-9.13 8.971v14.225c0 5.075 4.153 8.919 9.13 8.919h.408c5.111 0 9.128-3.798 9.128-8.966V24.23c0-5.078-4.017-8.971-9.128-8.971zm-78.86 19.49l2.876-9.652 2.871 9.652h-5.748zm5.796-17.245c-.73-2.012-1.78-2.245-2.92-2.245-1.142 0-2.241.186-2.926 2.245l-8.35 26.483c-.136.32-.136.55-.136.869 0 1.604 1.327 2.518 2.742 2.518 1.046 0 2.05-.505 2.46-1.826l1.692-5.54h9.03l1.694 5.54c.362 1.321 1.365 1.826 2.415 1.826 1.42 0 2.737-.914 2.737-2.518a3.01 3.01 0 0 0-.136-.869l-8.302-26.483zm-20.95-2.245H20.4c-1.69 0-2.374 1.056-2.872 2.29L11.867 30.36 6.21 17.55c-.55-1.234-1.189-2.29-2.876-2.29h-.688C1.233 15.26 0 16.502 0 17.918v26.848c0 1.786 1.32 2.609 2.646 2.609 1.322 0 2.648-.823 2.648-2.609v-16.74l3.88 8.965c.685 1.512 1.825 1.787 2.693 1.787.868 0 2.007-.275 2.688-1.787l3.882-8.965v16.74c0 1.786 1.325 2.609 2.647 2.609 1.329 0 2.647-.823 2.647-2.609V17.918c0-1.416-1.23-2.658-2.647-2.658zm37.604 8.784v-.682c0-1.782 1.554-2.838 3.563-2.838h.41c2.189 0 3.647.964 3.647 2.196 0 3.295 5.246 3.248 5.246-.136 0-4.39-4.196-7.324-8.892-7.324h-.411c-3.97 0-8.857 2.884-8.857 7.823v.961c0 8.373 13.283 8.92 13.283 14.634 0 2.337-1.688 3.482-4.015 3.482h-.411c-2.327 0-3.878-1.371-3.878-3.887 0-1.785-1.329-2.653-2.65-2.653-1.32 0-2.644.868-2.644 2.653 0 5.762 4.243 9.102 9.172 9.102h.41c5.296 0 9.306-3.434 9.306-8.697 0-9.466-13.279-10.974-13.279-14.634zm38.975-8.784h-.684c-1.693 0-2.373 1.056-2.872 2.29L88.444 30.36l-5.66-12.809c-.546-1.234-1.185-2.29-2.872-2.29h-.681c-1.418 0-2.648 1.242-2.648 2.658v26.848c0 1.786 1.318 2.609 2.648 2.609 1.314 0 2.645-.823 2.645-2.609v-16.74l3.874 8.965c.684 1.512 1.83 1.787 2.694 1.787.87 0 2.009-.275 2.69-1.787l3.883-8.965v16.74c0 1.786 1.321 2.609 2.646 2.609 1.326 0 2.647-.823 2.647-2.609V17.918c0-1.416-1.236-2.658-2.647-2.658z"/>
    </g>
</svg>
