<svg xmlns="http://www.w3.org/2000/svg" width="48" height="41" viewBox="0 0 48 41">
    <g fill="none" fill-rule="evenodd" transform="translate(0 -4)">
        <path d="M0 0h48v48H0z"/>
        <path fill="#000" fill-rule="nonzero" d="M31.662 17.936l-4.245 7.441 1.376 1.802 2.174-2.168a.778.778 0 0 1 1.119.022l2.507 2.696 1.452-2.202-4.383-7.591zm16.21 24.966a.777.777 0 0 1-.673 1.166H.803a.777.777 0 0 1-.673-1.166l12.29-21.288a.778.778 0 0 1 1.348 0l2.122 3.676 6.782-11.744a.778.778 0 0 1 1.346 0l4.192 7.26 2.778-4.814a.778.778 0 0 1 1.347 0l15.537 26.91zm-2.02-.389l-8.937-15.48-1.569 2.378a.78.78 0 0 1-1.218.102l-2.633-2.832-2.237 2.23a.78.78 0 0 1-1.17-.083l-1.536-2.042-4.899 8.486 4.182 7.241h20.018zM27.313 22.36l-.278-.482-.942 1.462a.779.779 0 0 1-1.25.077l-1.589-1.907-1.014 1.926a.78.78 0 0 1-1.236.19l-1.498-1.487-2.717 4.706 3.968 6.871 6.556-11.356zm-1.153-1.996l-2.814-4.874-3.035 5.256 1.043 1.036 1.065-2.025a.778.778 0 0 1 1.285-.135l1.655 1.986.801-1.244zm-2.121 22.15l-6.97-12.076-1.776 2.014a.778.778 0 0 1-.583.263h-.013a.782.782 0 0 1-.588-.283L12.41 30.37l-1.425 1.097a.78.78 0 0 1-1.213-.374l-.373-1.136-7.25 12.557h21.889zm-7.791-13.496l-3.153-5.46-2.65 4.591.463 1.414 1.15-.885a.777.777 0 0 1 1.075.121l1.597 1.94 1.518-1.72z"/>
        <path fill="#FFF" fill-rule="nonzero" d="M31.53 24.785a.778.778 0 0 0-.563.226l-2.174 2.168-1.376-1.802 4.245-7.441 4.383 7.591-1.452 2.202-2.507-2.696a.776.776 0 0 0-.556-.248z"/>
        <path fill="#4ABD49" fill-rule="nonzero" d="M36.915 27.033l8.938 15.48H25.835l-4.182-7.241 4.899-8.486 1.535 2.042a.78.78 0 0 0 1.17.083l2.238-2.23 2.633 2.832a.776.776 0 0 0 .57.247c.02 0 .042 0 .064-.002a.78.78 0 0 0 .584-.347l1.569-2.378z" opacity=".918"/>
        <path fill="#4ABD49" fill-rule="nonzero" d="M27.034 21.878l.278.482-6.556 11.356-3.968-6.87 2.717-4.707 1.498 1.487a.779.779 0 0 0 1.236-.19l1.014-1.926 1.588 1.907a.775.775 0 0 0 1.25-.077l.943-1.462z"/>
        <path fill="#FFF" fill-rule="nonzero" d="M23.345 15.49l2.814 4.874-.801 1.244-1.655-1.986a.778.778 0 0 0-1.286.135l-1.064 2.025-1.043-1.036 3.035-5.256z"/>
        <path fill="#4ABD49" fill-rule="nonzero" d="M17.067 30.438l6.97 12.075H2.15L9.4 29.956l.372 1.136a.779.779 0 0 0 1.213.374l1.425-1.097 1.698 2.063c.145.175.36.279.588.283h.013a.778.778 0 0 0 .583-.263l1.775-2.014z"/>
        <path fill="#FFF" fill-rule="nonzero" d="M13.094 23.558l3.153 5.46-1.518 1.721-1.597-1.94a.777.777 0 0 0-1.074-.121l-1.151.885-.464-1.414 2.651-4.591z"/>
        <path fill="#000" fill-rule="nonzero" d="M9.733 9.079a5.293 5.293 0 0 1 5.287 5.287 5.293 5.293 0 0 1-5.287 5.287 5.293 5.293 0 0 1-5.287-5.287A5.293 5.293 0 0 1 9.733 9.08zm3.731 5.287a3.736 3.736 0 0 0-3.73-3.732A3.736 3.736 0 0 0 6 14.366a3.736 3.736 0 0 0 3.732 3.732 3.736 3.736 0 0 0 3.731-3.732z"/>
        <path fill="#FFE200" fill-rule="nonzero" d="M9.733 10.634a3.736 3.736 0 0 1 3.731 3.732 3.736 3.736 0 0 1-3.73 3.732A3.736 3.736 0 0 1 6 14.366a3.736 3.736 0 0 1 3.732-3.732z"/>
        <path fill="#000" fill-rule="nonzero" d="M35.8 4a.8.8 0 0 0 0 1.6 8.81 8.81 0 0 1 8.8 8.8.8.8 0 0 0 1.6 0C46.193 8.659 41.541 4.007 35.8 4z"/>
        <path fill="#000" fill-rule="nonzero" d="M35.8 8a.8.8 0 0 0 0 1.6 4.805 4.805 0 0 1 4.8 4.8.8.8 0 0 0 1.6 0A6.407 6.407 0 0 0 35.8 8z"/>
        <circle cx="36.6" cy="13.6" r="1.6" fill="#000" fill-rule="nonzero"/>
    </g>
</svg>
