<svg xmlns="http://www.w3.org/2000/svg" width="48" height="48" viewBox="0 0 48 48">
    <g fill="none" fill-rule="evenodd">
        <path d="M0 0h48v48H0z"/>
        <path fill="#4ABD49" fill-rule="nonzero" d="M45.457 15.787l-3.21-2.737-.771-4.148-3.958-1.47-2.133-3.638-4.219-.035-3.235-2.69-3.97 1.422-3.982-1.422-3.258 2.678-4.207.047-2.133 3.638-3.958 1.47-.77 4.148-3.212 2.737.711 4.16-2.086 3.673 2.074 3.673-.71 4.16 3.21 2.737.77 4.148 3.959 1.47 2.133 3.637 4.219.036 3.246 2.69 3.982-1.41 3.97 1.41 3.259-2.679 4.218-.035 2.133-3.638 3.946-1.47.77-4.147 3.212-2.738-.711-4.159 2.074-3.673-2.074-3.674.711-4.171zm-21.496 25.11c-9.551 0-17.29-7.738-17.29-17.29 0-9.55 7.739-17.289 17.29-17.289 9.552 0 17.29 7.739 17.29 17.29 0 9.551-7.75 17.29-17.29 17.29z"/>
        <path fill="#F9F9F9" fill-rule="nonzero" d="M23.961 6.318c-9.551 0-17.29 7.739-17.29 17.29 0 9.551 7.739 17.29 17.29 17.29 9.552 0 17.29-7.739 17.29-17.29 0-9.551-7.75-17.29-17.29-17.29zm7.466 27.576l-7.478-5.427-7.466 5.427 2.856-8.781-7.477-5.428h9.231l2.856-8.78 2.856 8.78h9.232l-7.478 5.428 2.868 8.781z"/>
        <path fill="#FFE200" fill-rule="nonzero" d="M26.805 19.685l-2.844-8.792-2.856 8.792h-9.243l7.477 5.428-2.856 8.781 7.478-5.427 7.466 5.427-2.856-8.781 7.477-5.428z"/>
        <path fill="#000" fill-rule="nonzero" d="M23.961 5.536c-9.99 0-18.083 8.094-18.083 18.072s8.094 18.071 18.083 18.071c9.99 0 18.072-8.093 18.072-18.071-.012-9.978-8.106-18.06-18.072-18.072zm0 34.58c-9.124 0-16.507-7.395-16.507-16.508S14.837 7.113 23.96 7.113c9.125 0 16.496 7.382 16.496 16.495-.012 9.113-7.395 16.495-16.496 16.507z"/>
        <path fill="#000" fill-rule="nonzero" d="M24.708 10.656a.777.777 0 0 0-.996-.498.771.771 0 0 0-.498.498l-2.678 8.247h-8.674a.781.781 0 0 0-.782.782c0 .25.118.486.32.64l7.015 5.096-2.678 8.236a.802.802 0 0 0 .498.995.805.805 0 0 0 .71-.107l7.016-5.095 7.015 5.095a.783.783 0 0 0 1.102-.177.775.775 0 0 0 .107-.7l-2.69-8.259 7.015-5.096a.794.794 0 0 0 .178-1.101.775.775 0 0 0-.64-.32h-8.662l-2.678-8.236zm3.4 13.817a.787.787 0 0 0-.284.877l2.11 6.482-5.51-4.005a.783.783 0 0 0-.925 0l-5.51 4.005 2.109-6.482a.788.788 0 0 0-.284-.877l-5.523-4.006h6.814a.79.79 0 0 0 .747-.544l2.11-6.483 2.108 6.483a.79.79 0 0 0 .747.544h6.814l-5.522 4.006z"/>
        <path fill="#000" fill-rule="nonzero" d="M47.804 23.193l-1.873-3.318c-.094-.154-.118-.343-.094-.521l.64-3.769a.812.812 0 0 0-.273-.746l-2.915-2.477a.81.81 0 0 1-.273-.462l-.699-3.757a.803.803 0 0 0-.51-.604L38.23 6.212a.84.84 0 0 1-.415-.344l-1.932-3.282a.797.797 0 0 0-.699-.403h-3.555a.823.823 0 0 1-.438-.13L28.346.168a.815.815 0 0 0-.7-.095l-3.53 1.257a.826.826 0 0 1-.534 0L20.11.109a.833.833 0 0 0-.806.154l-2.832 2.512a.8.8 0 0 1-.522.202l-3.72.035a.806.806 0 0 0-.688.403L9.706 6.544a.876.876 0 0 1-.403.343l-3.425 1.28a.78.78 0 0 0-.51.604l-.652 3.591a.814.814 0 0 1-.272.462l-2.785 2.358a.802.802 0 0 0-.273.747l.605 3.59a.732.732 0 0 1-.095.522L.106 23.23a.793.793 0 0 0 0 .794l1.802 3.176a.797.797 0 0 1 .095.521l-.605 3.59a.81.81 0 0 0 .273.747l2.785 2.358a.809.809 0 0 1 .272.462l.652 3.591c.048.272.249.51.51.604l3.424 1.268c.166.06.32.19.415.344l1.813 3.164a.797.797 0 0 0 .7.403h3.709c.2 0 .39.071.533.201l2.832 2.513a.77.77 0 0 0 .806.154l3.46-1.233a.821.821 0 0 1 .533 0l3.52 1.256a.805.805 0 0 0 .699-.083l2.891-1.884a.788.788 0 0 1 .427-.13l3.567-.036a.807.807 0 0 0 .687-.403l1.932-3.294a.876.876 0 0 1 .403-.344l3.578-1.327a.78.78 0 0 0 .51-.604l.7-3.757a.809.809 0 0 1 .272-.462l2.903-2.465a.8.8 0 0 0 .273-.746l-.64-3.769a.732.732 0 0 1 .095-.521l1.884-3.33a.822.822 0 0 0-.012-.794zM41.618 34.44l-.64 3.425a.803.803 0 0 1-.51.604l-3.259 1.209a.763.763 0 0 0-.402.344l-1.754 3.01a.817.817 0 0 1-.687.402l-3.247.036a.755.755 0 0 0-.427.13l-2.63 1.718a.772.772 0 0 1-.7.084l-3.223-1.15a.821.821 0 0 0-.533 0l-3.176 1.126a.832.832 0 0 1-.806-.154l-2.583-2.287a.806.806 0 0 0-.533-.202h-3.39a.826.826 0 0 1-.699-.403l-1.67-2.867a.848.848 0 0 0-.415-.344l-3.117-1.161a.78.78 0 0 1-.51-.605l-.604-3.27a.812.812 0 0 0-.273-.463l-2.524-2.156a.801.801 0 0 1-.272-.747l.557-3.282a.732.732 0 0 0-.095-.522l-1.635-2.891a.792.792 0 0 1 0-.794l1.635-2.892c.095-.154.118-.343.095-.521l-.557-3.283a.81.81 0 0 1 .272-.746l2.548-2.157a.808.808 0 0 0 .272-.462l.605-3.27a.802.802 0 0 1 .51-.605l3.116-1.162a.763.763 0 0 0 .403-.343l1.67-2.868a.792.792 0 0 1 .688-.403l3.401-.035c.202 0 .38-.071.521-.202l2.584-2.298c.213-.202.521-.25.806-.155l3.152 1.126c.177.06.367.06.533 0l3.223-1.15a.771.771 0 0 1 .7.095l2.642 1.719a.71.71 0 0 0 .438.13h3.248c.284 0 .545.154.699.403l1.742 2.998a.85.85 0 0 0 .414.344L40.48 8.7a.78.78 0 0 1 .51.605l.64 3.425c.035.178.13.343.272.462l2.655 2.251c.213.178.32.462.272.747l-.58 3.436a.732.732 0 0 0 .094.522l1.719 3.033a.792.792 0 0 1 0 .795l-1.754 3.045a.797.797 0 0 0-.095.522l.58 3.436a.81.81 0 0 1-.272.747l-2.654 2.251a1.027 1.027 0 0 0-.25.462z"/>
    </g>
</svg>
