<svg xmlns="http://www.w3.org/2000/svg" width="48" height="48" viewBox="0 0 48 48">
    <g fill="none" fill-rule="evenodd">
        <path d="M1 0h48v48H1z"/>
        <circle cx="19.687" cy="28.312" r="18.75" fill="#FFF" fill-rule="nonzero"/>
        <g fill="#4ABD49" fill-rule="nonzero" opacity=".803">
            <path d="M19.687 9.562c-8.303 0-15.344 5.398-17.81 12.875h8.034c1 0 1.927-.523 2.444-1.38l1.696-2.805a2.857 2.857 0 0 1 2.445-1.38 2.856 2.856 0 0 0 2.657-1.807L20.757 11s.305-.26.696-.622a7.51 7.51 0 0 0 .655-.66c-.793-.103-1.6-.156-2.42-.156zM38.437 28.312c0-6.45-3.257-12.14-8.216-15.513a1.363 1.363 0 0 0-.177.169l-1.28 1.486a1.366 1.366 0 0 0-.007 1.775c.538.633.39 1.594-.31 2.038l-2.748 1.737a2.133 2.133 0 0 0-.994 1.803v1.08c0 .484-.255.931-.672 1.177l-2.624 1.546a4.69 4.69 0 0 0 .155 8.168l1.026.553c.115.062.237.107.365.134l1.125.239a2.382 2.382 0 0 1 1.888 2.33v1.557c0 .511-.164 1.009-.469 1.42l-2.493 3.36 2.526 2.76c7.493-2.456 12.905-9.505 12.905-17.82zM6.921 29.235l-.735-1.684a2.781 2.781 0 0 0-1.975-1.61 279.235 279.235 0 0 0-3.034-.627c-.157.976-.24 1.977-.24 2.998 0 4.583 1.646 8.781 4.377 12.038l.326-.986a3.869 3.869 0 0 1 1.236-1.787l3.691-2.995a1.295 1.295 0 0 0 .058-1.962l-3.704-3.385z"/>
        </g>
        <path fill="#EDEDED" fill-rule="nonzero" d="M13.488 27.221a5.156 5.156 0 0 1 7.292 7.292l-7.292-7.292z"/>
        <path fill="#FFE200" fill-rule="nonzero" d="M38.557 4.948L43.07 9.46l-.974.974a3.192 3.192 0 1 1-4.514-4.514l.974-.973zM33.357 10.498l4.163 4.163a1.83 1.83 0 0 1 0 2.589L25.46 29.308a1.83 1.83 0 0 1-2.588 0l-4.162-4.162a1.83 1.83 0 0 1 0-2.589l12.059-12.059a1.83 1.83 0 0 1 2.588 0z"/>
        <g fill="#ECECEC" fill-rule="nonzero">
            <path d="M32.01 27.731l3.933-3.933a1.875 1.875 0 0 1 2.651 0l7.92 7.92c.733.733.733 1.92 0 2.652l-3.932 3.933a1.875 1.875 0 0 1-2.652 0l-7.92-7.92a1.875 1.875 0 0 1 0-2.652zM20.27 15.992l3.933-3.934a1.875 1.875 0 0 0 0-2.651l-7.92-7.92a1.875 1.875 0 0 0-2.652 0L9.698 5.418a1.875 1.875 0 0 0 0 2.652l7.92 7.92c.732.733 1.92.733 2.652 0z"/>
        </g>
        <path fill="#000" fill-rule="nonzero" d="M35.414 38.608a.938.938 0 0 0-1.326.189.938.938 0 1 0 1.508 1.114.937.937 0 0 0-.182-1.303z"/>
        <path fill="#000" fill-rule="nonzero" d="M47.178 31.056l-7.92-7.92a2.794 2.794 0 0 0-1.99-.824c-.75 0-1.457.292-1.988.823l-1.304 1.304-1.16-1.16 5.367-5.366a2.77 2.77 0 0 0 0-3.915l-1.419-1.418.896-.896a4.127 4.127 0 0 0 2.18.621 4.116 4.116 0 0 0 2.92-1.207l.974-.974a.938.938 0 0 0 0-1.326L39.22 4.285a.938.938 0 0 0-1.326 0l-.973.973a4.135 4.135 0 0 0-.586 5.1l-.896.896-1.419-1.419a2.75 2.75 0 0 0-1.957-.81 2.75 2.75 0 0 0-1.957.81l-5.367 5.367-1.177-1.177 1.304-1.304a2.816 2.816 0 0 0 0-3.977l-7.92-7.92a2.816 2.816 0 0 0-3.978 0L9.035 4.756a2.816 2.816 0 0 0 0 3.977l1.925 1.926A19.656 19.656 0 0 0 0 28.312c0 10.855 8.832 19.687 19.687 19.687 5.108 0 9.95-1.947 13.632-5.483a.938.938 0 0 0-1.298-1.353 17.765 17.765 0 0 1-6.212 3.882l-.917-1.002a1.208 1.208 0 0 1-.08-1.533l1.44-1.942c.422-.568.654-1.27.654-1.977v-3.487a.938.938 0 0 0-1.875 0v3.487c0 .308-.101.613-.285.86l-1.44 1.942a3.086 3.086 0 0 0 .202 3.916l.306.334c-1.338.317-2.721.48-4.127.48-5.29 0-10.048-2.318-13.313-5.992l.156-.472c.177-.533.5-1.001.936-1.354l3.692-2.995a2.23 2.23 0 0 0 .1-3.382L7.7 28.678l-.655-1.503a3.726 3.726 0 0 0-2.642-2.152 428.23 428.23 0 0 0-2.136-.446c.087-.405.187-.807.3-1.203h7.108a4.234 4.234 0 0 0 3.603-2.033l1.69-2.794a.937.937 0 1 0-1.606-.97l-1.688 2.795a2.348 2.348 0 0 1-2 1.127H3.224a17.786 17.786 0 0 1 9.146-9.431l4.586 4.586a2.804 2.804 0 0 0 1.99.823c.72 0 1.44-.274 1.988-.823l1.303-1.303 1.178 1.177-5.367 5.367a2.771 2.771 0 0 0-.649 2.888 6.079 6.079 0 0 0-4.573 1.775.938.938 0 0 0 0 1.326l7.292 7.292a.938.938 0 0 0 1.326 0 6.078 6.078 0 0 0 1.776-4.56c.3.109.62.166.948.166a2.75 2.75 0 0 0 1.957-.81l5.366-5.367 1.16 1.16-1.303 1.303a2.816 2.816 0 0 0 0 3.978l7.92 7.92a2.804 2.804 0 0 0 1.989.823c.72 0 1.44-.275 1.988-.823l3.933-3.933a2.816 2.816 0 0 0 0-3.977zM38.246 6.584l.31-.31 3.189 3.187-.31.311a2.257 2.257 0 0 1-3.189 0 2.239 2.239 0 0 1-.66-1.594c0-.602.235-1.168.66-1.594zM4.017 26.858a1.848 1.848 0 0 1 1.31 1.067l.735 1.685c.052.12.13.229.227.317l3.704 3.385a.353.353 0 0 1 .116.275.354.354 0 0 1-.132.267L6.285 36.85c-.529.43-.957.962-1.26 1.563a17.712 17.712 0 0 1-3.15-10.1c0-.634.034-1.26.1-1.88.658.135 1.419.295 2.042.426zM23.54 11.395L22.236 12.7 18.28 8.741l1.966-1.966 3.295 3.295a.939.939 0 0 1 0 1.325zm-8.583-9.52c.24 0 .48.091.663.274l3.3 3.3-1.967 1.967-3.963-3.963 1.304-1.304a.935.935 0 0 1 .663-.274zM10.36 6.082l1.303-1.303 3.963 3.962-1.967 1.967-3.3-3.3a.938.938 0 0 1 0-1.326zm9.246 9.247a.939.939 0 0 1-1.326 0l-3.295-3.295 1.967-1.967 3.957 3.958-1.303 1.303zm1.1 17.785l-5.819-5.819a4.226 4.226 0 0 1 5.229.589 4.19 4.19 0 0 1 1.236 2.983c0 .807-.226 1.58-.647 2.247zm4.09-4.468a.886.886 0 0 1-.63.261.886.886 0 0 1-.632-.261l-4.162-4.163a.887.887 0 0 1-.262-.631c0-.239.093-.463.262-.631l12.059-12.06a.886.886 0 0 1 .631-.261c.239 0 .463.093.631.261l4.163 4.163a.894.894 0 0 1 0 1.263l-12.06 12.059zm11.809-4.185a.931.931 0 0 1 .662-.275c.25 0 .486.098.663.275l3.295 3.295-1.966 1.966-3.958-3.957 1.304-1.304zm-3.934 3.933l1.304-1.304 3.958 3.958-1.967 1.967-3.295-3.295a.939.939 0 0 1 0-1.326zm7.92 9.246l-3.299-3.3 1.967-1.966 3.962 3.963-1.303 1.303a.938.938 0 0 1-1.326 0zm5.26-3.933l-1.304 1.304-3.963-3.963 1.967-1.966 3.3 3.3a.938.938 0 0 1 0 1.325z"/>
        <path fill="#000" fill-rule="nonzero" d="M32.466 15.663L27.54 20.59a.938.938 0 0 0 1.326 1.326l4.926-4.927a.938.938 0 0 0-1.326-1.326zM26.072 22.446a.941.941 0 0 0-.937.937c0 .247.1.489.275.663a.945.945 0 0 0 .662.275c.247 0 .489-.1.663-.275a.945.945 0 0 0 .275-.663.941.941 0 0 0-.938-.938z"/>
    </g>
</svg>
