<svg xmlns="http://www.w3.org/2000/svg" width="48" height="48" viewBox="0 0 48 48">
    <path fill="#FCD900" fill-rule="nonzero" d="M7.035 7.033c9.378-9.377 24.571-9.377 33.938 0 9.019 9.018 9.358 23.443 1.008 32.87l-.25.2c.908 1.955 2.465 4.369 4.939 5.586.818.399.628 1.616-.27 1.756-2.703.419-6.584-.05-10.205-2.784l-.05.04c-9.198 5.407-21.229 4.17-29.13-3.73-9.357-9.368-9.357-24.57.02-33.938zm24.871 27.234c.789-.788.789-1.746-.01-2.564a368.69 368.69 0 0 0-2.793-2.793c-.758-.759-1.716-.759-2.484 0-.578.578-1.167 1.157-1.736 1.745-.15.16-.289.2-.478.09-.38-.21-.779-.369-1.138-.598-1.696-1.058-3.112-2.424-4.36-3.96-.618-.759-1.176-1.577-1.555-2.495-.08-.19-.06-.309.09-.459.588-.558 1.157-1.137 1.725-1.715.798-.808.798-1.746 0-2.554-.449-.459-.908-.908-1.366-1.367-.47-.469-.928-.938-1.407-1.406-.768-.749-1.726-.759-2.494 0-.589.578-1.147 1.167-1.746 1.735-.548.53-.828 1.168-.888 1.916-.09 1.217.21 2.364.629 3.491.868 2.325 2.175 4.38 3.76 6.265 2.146 2.554 4.71 4.579 7.712 6.035 1.347.659 2.753 1.167 4.27 1.247 1.037.06 1.955-.2 2.683-1.017.499-.559 1.058-1.058 1.586-1.596zm-8.848-15.503a7.29 7.29 0 0 1 4.19 2.095 7.325 7.325 0 0 1 2.055 3.96l2.125-.368a9.423 9.423 0 0 0-2.654-5.118 9.469 9.469 0 0 0-5.417-2.703l-.3 2.134zm11.841 5.687l2.125-.37a15.765 15.765 0 0 0-4.41-8.499 15.64 15.64 0 0 0-8.978-4.479l-.299 2.135a13.58 13.58 0 0 1 7.761 3.87 13.62 13.62 0 0 1 3.801 7.343z"/>
</svg>
