<svg xmlns="http://www.w3.org/2000/svg" width="48" height="48" viewBox="0 0 48 48">
    <g fill="none" fill-rule="evenodd">
        <path d="M0 0h48v48H0z"/>
        <circle cx="24" cy="24" r="23.265" fill="#FFE200" fill-rule="nonzero"/>
        <circle cx="24" cy="24" r="19.592" fill="#FFF" fill-rule="nonzero"/>
        <path fill="#4FBB4F" fill-rule="nonzero" d="M26.766 24.701a2.025 2.025 0 0 1-2.025-3.508c.968-.56 7.888-3.507 8.447-2.539.56.97-5.453 5.488-6.422 6.047z"/>
        <circle cx="24" cy="24" r="3.019" fill="#CECECE" fill-rule="nonzero"/>
        <path fill="#000" fill-rule="nonzero" d="M40.97 7.03A23.842 23.842 0 0 0 24 0 23.842 23.842 0 0 0 7.03 7.03 23.843 23.843 0 0 0 0 24c0 6.41 2.496 12.438 7.03 16.97A23.843 23.843 0 0 0 24 48c6.41 0 12.438-2.496 16.97-7.03A23.843 23.843 0 0 0 48 24c0-6.41-2.496-12.438-7.03-16.97zm-1.038 32.902A22.384 22.384 0 0 1 24 46.53a22.383 22.383 0 0 1-15.932-6.6A22.384 22.384 0 0 1 1.47 24a22.383 22.383 0 0 1 6.6-15.932A22.383 22.383 0 0 1 24 1.47a22.383 22.383 0 0 1 15.932 6.6A22.384 22.384 0 0 1 46.53 24a22.384 22.384 0 0 1-6.6 15.932z"/>
        <path fill="#000" fill-rule="nonzero" d="M15.918 37.886h16.164v-4.408H15.918v4.408zm1.47-2.94h13.224v1.47H17.388v-1.47z"/>
        <path fill="#000" fill-rule="nonzero" d="M24 3.674C12.792 3.674 3.674 12.792 3.674 24S12.792 44.327 24 44.327 44.327 35.208 44.327 24c0-11.208-9.119-20.326-20.327-20.326zm0 39.183c-10.398 0-18.857-8.46-18.857-18.857 0-10.398 8.46-18.857 18.857-18.857 10.398 0 18.857 8.46 18.857 18.857 0 10.398-8.46 18.857-18.857 18.857z"/>
        <path fill="#000" fill-rule="nonzero" d="M29.143 18.563c-1.728.602-3.493 1.361-4.339 1.771A3.758 3.758 0 0 0 20.246 24 3.758 3.758 0 0 0 24 27.753a3.76 3.76 0 0 0 3.608-2.723 47.236 47.236 0 0 0 3.75-2.924c2.266-1.972 2.934-3.007 2.466-3.819-.475-.822-1.744-.747-4.68.276zM24 26.284A2.287 2.287 0 0 1 21.716 24 2.287 2.287 0 0 1 24 21.716 2.287 2.287 0 0 1 26.284 24 2.287 2.287 0 0 1 24 26.284zm6.044-4.986a48.916 48.916 0 0 1-2.381 1.885 3.754 3.754 0 0 0-1.183-1.997 48.693 48.693 0 0 1 2.71-1.08c1.578-.572 2.486-.79 2.99-.87-.311.386-.926 1.035-2.136 2.062zM23.265 6.367h1.469v2.939h-1.469zM19.994 11.889l-1.267-4.731 1.419-.38 1.267 4.73zM12.051 11.013l3.464 3.463-1.039 1.039-3.463-3.464zM7.159 18.727l4.73 1.268-.38 1.419-4.73-1.268zM36.49 26.586l4.732 1.268-.38 1.419-4.732-1.268zM11.51 26.588l.38 1.419-4.73 1.267-.38-1.419zM36.11 19.994l4.731-1.268.38 1.42-4.73 1.267zM32.485 14.476l3.464-3.464 1.038 1.04-3.463 3.463zM28.005 11.89l-1.42-.38 1.269-4.73 1.419.38zM16.017 11.642l-1.47-2.545 1.273-.734 1.47 2.545zM10.907 17.29l-2.545-1.47.735-1.272 2.545 1.47zM37.093 30.71l2.545 1.47-.734 1.272-2.545-1.47zM6.367 23.265h2.939v1.469H6.367zM38.694 23.265h2.939v1.469h-2.939zM10.907 30.71l.735 1.272-2.546 1.47-.734-1.272zM36.359 16.017l2.545-1.47.734 1.273-2.545 1.47zM31.983 11.642l-1.273-.734 1.47-2.546 1.272.735z"/>
    </g>
</svg>
